<svg xmlns="http://www.w3.org/2000/svg" width="18" height="18" viewBox="0 0 18 18">
    <defs>
        <linearGradient id="a" x1="7.654%" y1="10.782%" y2="100%">
            <stop offset="0%" stop-color="#44DEC5"/>
            <stop offset="100%" stop-color="#4EBCFA"/>
        </linearGradient>
    </defs>
    <g fill="none" fill-rule="nonzero">
        <path fill="#000" stroke="#000" stroke-width=".5" d="M14.003 16.2V9.506a.6.6 0 0 1 .6-.6l1.299.002-6.912-7.03L2.097 8.89l1.305.002a.6.6 0 0 1 .599.6V16.2h2.598v-2.6a1.4 1.4 0 0 1 1.4-1.4h2.002a1.4 1.4 0 0 1 1.4 1.4v2.6h2.602z"/>
        <path fill="#FFF" stroke="url(#a)" stroke-width="1.5" d="M14.603 8.707h-.8V15.4a.6.6 0 0 1-.6.6h-3.002a.6.6 0 0 1-.6-.6v-2.8a.6.6 0 0 0-.6-.6H6.999a.6.6 0 0 0-.6.6v2.8a.6.6 0 0 1-.6.6H2.8a.6.6 0 0 1-.6-.6V8.693L.599 8.69a.6.6 0 0 1-.414-1.033l7.39-7.49a.6.6 0 0 1 .83-.001l7.41 7.509a.6.6 0 0 1-.416 1.032h-.796v-.001z" transform="translate(1 1)"/>
    </g>
</svg>
