<svg width="21" height="21" viewBox="0 0 21 21" fill="none" xmlns="http://www.w3.org/2000/svg">
<path fill-rule="evenodd" clip-rule="evenodd" d="M0.456522 0H9.13043C9.38152 0 9.58696 0.205435 9.58696 0.456522V9.13043C9.58696 9.38152 9.38152 9.58696 9.13043 9.58696H0.456522C0.205435 9.58696 0 9.38152 0 9.13043V0.456522C0 0.205435 0.205435 0 0.456522 0ZM1.94022 7.64674H7.64674V1.94022H1.94022V7.64674ZM20.5435 0H11.8696C11.6185 0 11.413 0.205435 11.413 0.456522V9.13043C11.413 9.38152 11.6185 9.58696 11.8696 9.58696H20.5435C20.7946 9.58696 21 9.38152 21 9.13043V0.456522C21 0.205435 20.7946 0 20.5435 0ZM13.3533 7.64674H19.0598V1.94022H13.3533V7.64674ZM9.13043 11.413H0.456522C0.205435 11.413 0 11.6185 0 11.8696V20.5435C0 20.7946 0.205435 21 0.456522 21H9.13043C9.38152 21 9.58696 20.7946 9.58696 20.5435V11.8696C9.58696 11.6185 9.38152 11.413 9.13043 11.413ZM1.94022 19.0598H7.64674V13.3533H1.94022V19.0598ZM20.5435 11.413H11.8696C11.6185 11.413 11.413 11.6185 11.413 11.8696V20.5435C11.413 20.7946 11.6185 21 11.8696 21H20.5435C20.7946 21 21 20.7946 21 20.5435V11.8696C21 11.6185 20.7946 11.413 20.5435 11.413ZM13.3533 19.0598H19.0598V13.3533H13.3533V19.0598Z" fill="url(#paint0_linear)"/>
<defs>
<linearGradient id="paint0_linear" x1="-7.76051" y1="11.9606" x2="11.6321" y2="30.6963" gradientUnits="userSpaceOnUse">
<stop stop-color="#44DEC5"/>
<stop offset="1" stop-color="#4EBCFA"/>
</linearGradient>
</defs>
</svg>
