<?xml version="1.0" ?><!DOCTYPE svg  PUBLIC '-//W3C//DTD SVG 1.1//EN'  'http://www.w3.org/Graphics/SVG/1.1/DTD/svg11.dtd'><svg height="512px" id="形状_1_1_" style="enable-background:new 0 0 512 512;" version="1.1" viewBox="0 0 512 512" width="512px" xml:space="preserve" xmlns="http://www.w3.org/2000/svg" xmlns:xlink="http://www.w3.org/1999/xlink"><g id="形状_1"><g><path d="M239.733,241.791c0,0-5.078-1.017-4.571,1.945    c0,0,8.294,12.36,15.746,14.729c0,0,3.896,1.693,7.956,0c0,0,8.637-3.553,15.321-12.525c0,0,2.454-3.556-1.438-3.641    C272.747,242.299,248.197,245.346,239.733,241.791z M429.645,272.263c6.729,1.016,17.523,7.999,17.523,7.999    c2.284,1.65,13.076,6.095,13.076,6.095c12.711,4.62,19.987,3.286,23.907,1.277c1.026-7.825,1.665-15.771,1.88-23.82    c-17.466,10.461-35.391-0.607-35.391-0.607c-3.724-1.692-14.139-7.449-14.139-7.449c-11.937-7.617-23.109-6.094-23.109-6.094    c0-1.523-5.077-11.936-5.077-11.936c3.389-2.286,11.68-1.946,11.68-1.946c7.45,0.167,21.671,8.972,21.671,8.972    c14.518,7.291,17.943,8.272,17.943,8.272c12.675,5.45,22.15-1.277,26.299-5.245C480.839,125.172,379.854,27.325,256.003,27.325    c-123.796,0-224.742,97.754-229.901,220.276c4.05,3.94,13.621,10.955,26.481,5.424c0,0,3.432-0.981,17.95-8.272    c0,0,14.218-8.805,21.663-8.972c0,0,8.297-0.34,11.682,1.946c0,0-5.077,10.412-5.077,11.936c0,0-11.173-1.523-23.109,6.094    c0,0-10.412,5.757-14.133,7.449c0,0-18.066,11.151-35.594,0.489c0.214,8.05,0.846,15.997,1.867,23.82    c3.867,2.071,11.168,3.551,24.118-1.159c0,0,10.795-4.444,13.075-6.095c0,0,10.795-6.983,17.524-7.999c0,0,4.951-0.762,7.743,0    l-2.282,12.951c0,0-8.636,0.412-14.983,4.27c0,0-8.573,4.223-12.824,7.156c0,0-16.01,9.931-29.464,8.028    c1.258,6.052,2.767,12.014,4.493,17.881c3.281,0.734,9.024,0.826,17.862-2.928c0,0,6.474-2.921,16.249-9.396    c0,0,8.506-4.315,16.632-3.681l-1.269,11.806c0,0-6.984-0.186-13.714,4.605c0,0-15.366,12.298-31.091,13.774    c2.173,5.912,4.593,11.708,7.22,17.385c3.171,0.078,9.071-0.851,16.382-7.069c0,0,7.873-6.221,10.792-7.109    c0,0,5.334-2.921,11.681-1.777l2.668,11.553c0,0-9.649,1.905-14.349,5.587c0,0-7.683,5.6-11.3,7.491c0,0-3.77,2.835-9.938,3.216    c3.038,5.673,6.31,11.2,9.796,16.576c7.833-5.573,25.166-16.858,32.899-13.569l-4.316-14.476c0,0,11.68,2.286,24.632-7.872    l11.424-8.771c0,0-1.523-19.855,23.364-49.472c0,0,8.632-11.843,2.792-29.871c0,0-23.109-54.342,15.489-79.989    c0,0-24.377,21.391-7.108,75.446c0,0,10.663,19.271-3.303,38.315c0,0-20.062,22.883-22.346,44.58c0,0-1.014,14.841,12.445,34.649    c0,0-19.556,19.807-33.013,23.361c0,0-8.126,2.285-11.936,0l-4.571-13.459c0,0-8.125-1.016-15.997,3.302    c0,0-8.266,4.805-13.23,8.3c3.413,4.675,6.998,9.213,10.746,13.609c4.141-3.182,14.073-9.962,21.528-8.196l6.351,9.014    c0,0-13.628,0.024-20.349,7.591c4.48,4.765,9.162,9.34,14.035,13.707c2.851-2.396,7.395-5.403,12.404-5.554l7.621,8.506    c0,0-5.75,2.567-9.163,6.215c7.529,5.963,15.436,11.471,23.687,16.466c6.106-16.669,18.489-32.33,18.489-32.33    c8.888-11.681,7.87-30.979,7.87-30.979c13.713,16.506-6.857,41.582-6.857,41.582c-6.884,4.813-10.392,17.215-12.071,26.027    c4.092,2.273,8.258,4.438,12.496,6.465c1.739-8.066,6.446-20.72,18.533-38.522c0,0,17.866-18.538,5.168-36.313    c0,0-1.523-6.857-13.964-20.823c0,0-26.193-25.649-10.686-50.534c0,0,11.192-18.03,20.588-26.916c0,0,11.679-15.745,1.521-35.806    c0,0-30.473-47.992,13.203-88.115c0,0-32.502,38.912-3.298,85.858c0,0,12.948,22.571-5.588,42.379    c0,0-33.772,36.312-13.205,62.215c0,0,10.16,12.188,11.936,14.221c0,0,25.394,24.377,6.857,54.087c0,0-19.792,24.08-18.423,43.84    c5.794,2.352,11.697,4.488,17.716,6.367c-0.971-8.613-0.169-22.923,10.355-39.796c0,0,23.36-30.725,9.905-51.04    c0,0-4.826-10.411-15.493-21.332c0,0-26.154-24.886-2.031-56.373c0,0,26.157-24.378,14.728-47.739c0,0-39.104-64.754,7.62-97.003    c0,0-32.247,31.995-6.095,79.228c0,0,21.333,38.344,3.554,54.088c0,0-30.363,34.027-13.784,56.119    c0,0,11.247,14.729,13.533,17.269c0,0,24.122,25.14,6.096,55.357c0,0-12.698,22.094-13.208,23.87c0,0-6.043,9.758-2.099,31.007    c6.041,1.504,12.172,2.768,18.393,3.778c-3.387-8.421-5.627-20.229-1.056-33.77c0,0,8.633-18.962,12.187-23.361    c0,0,15.575-25.057,5.757-41.479c0,0-0.507-4.063-14.221-21.837c0,0-25.052-23.867-10.499-43.846c0,0,17.105-23.886,18.118-31.834    c0,0,2.368-10.657,14.559-1.177c0,0,10.155,4.693,23.189-1.378c0,0,9.146-6.238,13.04,0.277c0,0,4.736,11.26,18.112,27.681    c0,0,19.807,20.989-3.728,47.06c0,0-29.623,26.581-18.449,51.805c0,0,22.081,37.479,22.347,54.342c0,0-0.232,8.832-3.559,17.319    c5.88-0.988,11.684-2.198,17.4-3.628c3.929-21.218-2.105-30.959-2.105-30.959c-0.509-1.776-13.206-23.87-13.206-23.87    c-18.028-30.218,6.096-55.357,6.096-55.357c2.285-2.54,13.532-17.269,13.532-17.269c16.578-22.092-13.783-56.119-13.783-56.119    c-17.78-15.744,3.555-54.088,3.555-54.088c26.154-47.232-6.096-79.228-6.096-79.228c46.723,32.249,7.619,97.003,7.619,97.003    c-11.429,23.361,14.727,47.739,14.727,47.739c24.122,31.487-2.029,56.373-2.029,56.373    c-10.667,10.921-15.494,21.332-15.494,21.332c-13.456,20.315,9.907,51.04,9.907,51.04c10.496,16.829,11.32,31.111,10.358,39.734    c6.018-1.889,11.922-4.029,17.717-6.385c1.309-19.744-18.428-43.761-18.428-43.761c-18.538-29.71,6.857-54.087,6.857-54.087    c1.774-2.032,11.935-14.221,11.935-14.221c20.567-25.903-13.204-62.215-13.204-62.215c-18.537-19.808-5.588-42.379-5.588-42.379    c29.203-46.946-3.302-85.858-3.302-85.858c43.678,40.123,13.207,88.115,13.207,88.115c-10.162,20.061,1.523,35.806,1.523,35.806    c9.394,8.886,20.581,26.916,20.581,26.916c15.512,24.885-10.681,50.534-10.681,50.534c-12.442,13.966-13.966,20.823-13.966,20.823    c-12.697,17.774,5.169,36.313,5.169,36.313c12.045,17.742,16.763,30.371,18.515,38.438c4.238-2.031,8.404-4.197,12.496-6.479    c-1.688-8.804-5.196-21.137-12.054-25.929c0,0-20.571-25.076-6.857-41.582c0,0-1.017,19.299,7.87,30.979    c0,0,12.337,15.602,18.455,32.239c8.23-4.997,16.122-10.504,23.633-16.458c-3.422-3.604-9.079-6.132-9.079-6.132l7.62-8.506    c4.955,0.15,9.448,3.09,12.309,5.476c4.873-4.381,9.559-8.964,14.041-13.735c-6.755-7.46-20.255-7.484-20.255-7.484l6.347-9.014    c7.382-1.75,17.197,4.887,21.411,8.109c3.746-4.396,7.327-8.935,10.736-13.609c-4.975-3.489-13.103-8.213-13.103-8.213    c-7.872-4.317-16-3.302-16-3.302l-4.568,13.459c-3.81,2.285-11.931,0-11.931,0c-13.459-3.555-33.014-23.361-33.014-23.361    c13.459-19.809,12.446-34.649,12.446-34.649c-2.286-21.697-22.348-44.58-22.348-44.58c-13.966-19.045-3.303-38.315-3.303-38.315    c17.269-54.056-7.108-75.446-7.108-75.446c38.598,25.647,15.49,79.989,15.49,79.989c-5.841,18.028,2.791,29.871,2.791,29.871    c24.884,29.616,23.36,49.472,23.36,49.472l11.428,8.771c12.949,10.158,24.629,7.872,24.629,7.872l-4.316,14.476    c7.692-3.271,24.874,7.871,32.771,13.475c3.469-5.348,6.717-10.849,9.742-16.491c-6.06-0.424-9.755-3.206-9.755-3.206    c-3.62-1.892-11.3-7.491-11.3-7.491c-4.7-3.682-14.35-5.587-14.35-5.587l2.668-11.553c6.348-1.144,11.682,1.777,11.682,1.777    c2.919,0.889,10.793,7.109,10.793,7.109c7.163,6.095,12.977,7.105,16.188,7.07c2.633-5.679,5.056-11.479,7.228-17.398    c-15.662-1.557-30.908-13.762-30.908-13.762c-6.728-4.791-13.712-4.605-13.712-4.605l-1.27-11.806    c8.127-0.635,16.632,3.681,16.632,3.681c9.776,6.475,16.254,9.396,16.254,9.396c8.642,3.672,14.336,3.669,17.651,2.978    c1.73-5.873,3.241-11.842,4.505-17.899c-13.414,1.777-29.269-8.06-29.269-8.06c-4.251-2.934-12.824-7.156-12.824-7.156    c-6.347-3.857-14.981-4.27-14.981-4.27l-2.283-12.951C424.694,271.501,429.645,272.263,429.645,272.263z M115.053,218.175    c-17.016-3.556-42.915,9.396-42.915,9.396c-27.168,15.236-37.33,2.54-37.33,2.54l21.08-32.505    c21.835-34.788,14.472-55.611,14.472-55.611c-0.763-8.887,5.587-5.331,5.587-5.331c24.377,14.728,24.634,43.423,24.634,43.423    c44.182-24.633,58.147-5.334,58.147-5.334C139.686,183.64,115.053,218.175,115.053,218.175z M213.071,194.136    c0,0,4.907-7.278,18.112-1.185c0,0,8.126,4.569,7.619,8.464c0,0-0.17,3.386-5.587,0c0,0-9.308-4.148-14.217-0.169    c0,0-2.286,3.979-6.432,0.086C212.565,201.332,209.687,197.606,213.071,194.136z M298.393,184.826c0,0-20.316-4.909-29.71,1.777    c0,0-12.355,6.519-5.923,29.118c0,0,0.9,4.506,4.801-0.912c0.059-0.088,0.125-0.18,0.191-0.274    c4.061-5.84,6.264-6.263,10.836-3.471c0,0,8.207,2.286,14.472-0.168c0,0,1.692-3.979,4.571,0.592c0,0,0.976,1.862,1.885,2.709    c0,0,3.833,5.757,0,15.236c0,0-1.97,4.484-5.184,14.643c0,0-8.299,20.99-26.58,30.558c0,0-10.58,5.415-25.226,0    c0,0-17.775-8.126-25.648-26.748c0,0-10.239-20.133-7.867-32.033c0,0,2.792-9.188,9.226-6.903c0,0,5.583,3.893,14.727,0.762    c0,0,6.688-3.047,8.631,1.777c0,0,2.205,4.824,4.491-0.762c0,0,3.212-7.11,0.333-17.86c0,0-1.096-9.311-17.94-9.734    c0,0-8.043,0.17-11.009,0.933c0,0-8.291,2.793-2.705-8.551c0,0,8.672-20.823,41.071-20.823c0,0,32.951-1.69,43.681,23.024    C299.516,177.715,303.645,186.348,298.393,184.826z M298.375,201.332c-4.146,3.894-6.434-0.086-6.434-0.086    c-4.909-3.979-14.221,0.169-14.221,0.169c-5.416,3.386-5.588,0-5.588,0c-0.508-3.895,7.617-8.464,7.617-8.464    c13.209-6.094,18.118,1.185,18.118,1.185C301.253,197.606,298.375,201.332,298.375,201.332z M343.059,165.357    c0.224,4.823-6.068,1.014-6.068,1.014c-87.607-41.645-159.638,0-159.638,0c-9.946,6.223-8.847-4.824-8.847-4.824    c-5.461-22.981-17.497-37.327-17.497-37.327c-7.847-7.11,0.863-5.714,0.863-5.714c18.03,2.031,32.759,11.554,32.759,11.554    c2.54-11.681-9.268-27.933-9.268-27.933c-4.571-5.967,5.713-4.571,5.713-4.571c21.401,7.571,36.197,17.267,44.939,24.163    L236.942,92.9l-24.891-21.816l32.172-0.867l11.343-28.103l11.51,27.425l32.494,1.526L274.693,93.24l10.861,26.025    c21.069-16.23,46.229-22.344,46.229-22.344c8.511-1.27,3.305,5.459,3.305,5.459c-9.017,15.998-6.985,26.154-6.985,26.154    c15.617-8.506,30.979-10.791,30.979-10.791c9.525-1.904,2.104,5.204,2.104,5.204C342.593,143.899,343.059,165.357,343.059,165.357    z M397.146,218.175c0,0-24.632-34.535-43.677-43.423c0,0,13.966-19.299,58.148,5.334c0,0,0.251-28.695,24.628-43.423    c0,0,6.352-3.556,5.588,5.331c0,0-7.363,20.823,14.473,55.611l21.079,32.505c0,0-10.156,12.696-37.33-2.54    C440.056,227.57,414.154,214.619,397.146,218.175z M231.175,126.051c3.011,2.704,4.499,4.39,4.499,4.39    c12.186-2.538,38.598-0.889,38.598-0.889c1.235-1.354,2.525-2.651,3.842-3.909l-22.547-18.521L231.175,126.051z M246.253,228.84    c-3.048,3.216,0,4.825,0,4.825c6.347,2.708,16.676,0,16.676,0c5.753-3.724,2.961-5.248,2.961-5.248    c-2.879-2.964-9.888-2.962-9.888-2.962C251.194,225.116,246.253,228.84,246.253,228.84z" style="fill-rule:evenodd;clip-rule:evenodd;fill:#00684D;"/></g></g></svg>