<svg width="16" height="16" viewBox="0 0 16 16" fill="none" xmlns="http://www.w3.org/2000/svg">
<path fill-rule="evenodd" clip-rule="evenodd" d="M2.66973 4.89971H15.8259C15.9216 4.89971 15.9998 4.97641 15.9998 5.07016V6.34857C15.9998 6.44232 15.9216 6.51903 15.8259 6.51903H0.695871C0.115452 6.51903 -0.208453 5.86278 0.150233 5.41533L3.8197 0.853543C3.88709 0.770447 3.98709 0.723572 4.09361 0.723572H5.66965C5.8153 0.723572 5.89573 0.889765 5.80661 1.00056L2.66973 4.89971ZM0.174146 9.92812H15.302C15.8846 9.92812 16.2085 10.5844 15.8498 11.0318L12.1804 15.5936C12.113 15.6767 12.013 15.7236 11.9064 15.7236H10.3304C10.1848 15.7236 10.1043 15.5574 10.1934 15.4466L13.3303 11.5474H0.174146C0.0784963 11.5474 0.000237439 11.4707 0.000237439 11.377V10.0986C0.000237439 10.0048 0.0784963 9.92812 0.174146 9.92812Z" fill="white"/>
</svg>
